<?xml version="1.0" encoding="UTF-8"?>
<svg width="819px" height="711px" viewBox="0 0 819 711" version="1.1" xmlns="http://www.w3.org/2000/svg" xmlns:xlink="http://www.w3.org/1999/xlink">
    <!-- Generator: Sketch 63.1 (92452) - https://sketch.com -->
    <title>Group 36</title>
    <desc>Created with Sketch.</desc>
    <defs>
        <polygon id="path-1" points="0.000130297442 0.00049644935 148.4427 0.00049644935 148.4427 265.538097 0.000130297442 265.538097"></polygon>
    </defs>
    <g id="Page-1" stroke="none" stroke-width="1" fill="none" fill-rule="evenodd">
        <g id="Group-36" transform="translate(0.000000, -54.000000)">
            <g id="Group-20-Copy-3">
                <polygon id="Polygon" fill="#363ACA" transform="translate(409.500000, 409.500000) rotate(-90.000000) translate(-409.500000, -409.500000) " points="409.5 0 764.137403 204.75 764.137403 614.25 409.5 819 54.8625972 614.25 54.8625972 204.75"></polygon>
                <path d="M409.5,123.772551 L162.052771,266.636276 L162.052771,552.363724 L409.5,695.227449 L656.947229,552.363724 L656.947229,266.636276 L409.5,123.772551 Z" id="Polygon" stroke="#6168DC" stroke-width="79.8"></path>
                <g id="Group-3" opacity="0.876929874" transform="translate(333.900000, 273.000000)">
                    <mask id="mask-2" fill="white">
                        <use xlink:href="#path-1"></use>
                    </mask>
                    <g id="Clip-2"></g>
                </g>
            </g>
            <path d="M443,506 C461.434691,499.715745 477.065533,488.743745 490,473 C479.698128,474.33265 470.04662,475.531392 460.420223,476.901101 C459.407764,477.045384 458.173327,478.002006 457.668604,478.916628 C452.688169,487.932395 447.839816,497.018327 443,506 L443,506 Z M330,346 C340.221053,344.724975 349.836931,343.629424 359.404375,342.205258 C360.637193,342.021739 361.952398,340.319515 362.665925,339.007583 C365.982399,332.907482 369.013762,326.649141 372.329738,320.549545 C373.758787,317.920627 375.630234,315.538423 378,312 C358.070196,318.899393 342.812516,330.182002 330,346 L330,346 Z M443,313 C447.845257,322.026112 452.697551,331.14747 457.671479,340.203842 C458.185157,341.138947 459.350733,342.203031 460.33436,342.334987 C470.082173,343.647109 479.85562,344.774691 490,346 C477.21787,330.332416 461.467266,319.302652 443,313 L443,313 Z M377,507 C373.06517,500.440615 368.533637,494.731166 366.02075,488.240098 C362.757966,479.813061 358.225428,475.29463 348.650542,475.58397 C342.387663,475.773347 336.066018,474.002645 329,473 C342.144059,489.144286 357.718129,500.320056 377,507 L377,507 Z M405,340 L405,306 C400.750187,306.964148 396.240201,306.761988 393.380792,308.854319 C382.549563,316.779191 376.114402,328.172386 371,340 L405,340 Z M405,511.759161 L405,479 L371,479 C373.617648,487.196879 382.48563,500.422723 389.010797,506.941125 C393.548786,511.474606 398.743182,512.557607 405,511.759161 L405,511.759161 Z M449,340 C444.364129,329.382334 438.350906,319.683852 429.991649,311.427043 C425.643671,307.132235 420.516311,306.96484 415,307.003965 L415,340 L449,340 Z M414,479 L414,513 C418.124957,512.301886 422.591892,512.769306 425.426726,510.84987 C436.948923,503.049491 443.250014,491.204175 449,479 L414,479 Z M356,351 C345.229589,351.846375 333.812404,352.953939 322.933116,357.048738 C321.679024,357.520774 320.39047,358.934389 319.893528,360.211926 C316.195678,369.715447 312.317531,379.178594 309.284935,388.899442 C307.70421,393.965228 307.722189,399.527475 307,405 L347.092498,405 C350.10262,386.749112 353.031332,368.998671 356,351 L356,351 Z M512,405 C511.303234,388.028913 506.765955,372.745124 498.391181,358.555488 C497.997269,357.887641 497.212464,357.2686 496.472433,357.004648 C485.335246,353.029439 473.755852,351.683286 463,351 C465.969179,369.060759 468.892577,386.844119 471.877351,405 L512,405 Z M356,468 C353.06183,449.971217 350.156689,432.144909 347.199785,414 L308.378963,414 C308.188672,414.459044 307.990494,414.707673 308,414.948361 C308.645666,431.036255 313.126869,446.012517 320.987954,459.986821 C321.4272,460.767941 322.259353,461.543602 323.083125,461.853271 C333.968159,465.946955 345.392515,466.936009 356,468 L356,468 Z M471.897146,414 C468.899624,432.191855 465.960053,450.036386 463,468 C473.506816,467.010126 484.957851,465.944832 495.880323,462.013121 C497.260183,461.516944 498.682507,459.942076 499.224559,458.538886 C502.886533,449.052962 506.675401,439.588375 509.674922,429.888599 C511.235632,424.842969 511.271102,419.332917 512,414 L471.897146,414 Z M357,405 L405,405 L405,349.037742 C394.794787,349.037742 384.940044,348.934533 375.088306,349.06946 C366.651469,349.184248 366.583878,349.283932 364.257252,357.342767 C359.799762,372.783791 357.066089,388.493661 357,405 L357,405 Z M414,348 L414,404.981483 C429.343267,404.981483 444.401633,404.962483 459.459999,405 C461.992179,405.005983 462.050557,403.389956 461.986192,401.594425 C461.379965,384.725134 458.603298,368.234349 453.159235,352.246073 C452.768556,351.098053 451.196359,349.619528 450.103654,349.559027 C438.183197,348.898015 426.248768,348.490008 414,348 L414,348 Z M357.349927,414 C357.192295,414.595363 356.994128,414.986289 357,415.373723 C357.258851,432.950403 360.341944,450.048399 366.05775,466.654747 C366.453583,467.804087 368.319653,469.028222 369.626252,469.184293 C373.963399,469.70187 378.355092,469.87988 382.729771,469.942708 C390.153014,470.05091 397.579259,469.972625 405,469.972625 L405,414 L357.349927,414 Z M414,414 L414,468.985316 C426.360701,468.985316 438.384452,469.06714 450.402176,468.84448 C451.469269,468.824644 453.005883,467.003189 453.466867,465.719294 C458.222335,452.469737 460.654804,438.724771 461.852459,424.762104 C462.155262,421.229285 461.898155,417.649852 461.898155,414 L414,414 Z M291.024282,405.96096 C292.286476,341.279397 346.924409,288.912917 411.999099,290.017148 C477.311384,291.12438 530.218907,345.820349 528.97863,410.949506 C527.70249,477.944054 473.439628,530.454565 407.02006,528.969253 C341.216147,527.497444 289.718754,472.886993 291.024282,405.96096 L291.024282,405.96096 Z" id="Fill-4" fill="#FFFFFF" opacity="0.645135789"></path>
        </g>
    </g>
</svg>